<svg width="30" height="34" viewBox="0 0 30 34" fill="none" xmlns="http://www.w3.org/2000/svg">
<path fill-rule="evenodd" clip-rule="evenodd" d="M26.9238 5.1875H6.78041L5.05932 1.48554C4.86613 1.07002 4.50067 0.8125 4.10416 0.8125H1.91666C1.31259 0.8125 0.822906 1.40013 0.822906 2.125C0.822906 2.84987 1.31259 3.4375 1.91666 3.4375H3.46191L5.16042 7.09089L9.07761 17.4915L9.08162 17.5022L9.42664 18.4182L5.49375 23.4523C5.21097 23.8143 5.12244 24.3367 5.26497 24.8024C5.40749 25.2682 5.7567 25.5977 6.16749 25.654L9.75227 26.1456C14.2362 26.7606 18.7639 26.7606 23.2478 26.1456L26.8325 25.654C27.4327 25.5717 27.8636 24.9212 27.795 24.201C27.7264 23.4808 27.1843 22.9637 26.5842 23.046L22.9994 23.5376C18.6805 24.1299 14.3195 24.1299 10.0007 23.5376L8.57802 23.3425L11.4646 19.6477C11.4925 19.6119 11.5185 19.5748 11.5424 19.5365L12.6403 19.7079C14.1787 19.9481 15.7338 19.9952 17.2804 19.8485C20.8875 19.5061 24.2306 17.4464 26.5646 14.1284L27.4077 12.9299C27.436 12.8897 27.4622 12.8474 27.4863 12.8034L29.0575 9.93016C30.1711 7.89357 28.9537 5.1875 26.9238 5.1875ZM11.6237 16.9021C11.3825 16.8644 11.1745 16.6805 11.0729 16.4156L11.071 16.4104L7.83274 7.8125H26.9238C27.2138 7.8125 27.3877 8.19908 27.2286 8.49002L25.6936 11.2972L24.8931 12.4352C22.9359 15.2174 20.1326 16.9446 17.1079 17.2316C15.7129 17.364 14.3102 17.3215 12.9225 17.1049L11.6237 16.9021Z" fill="black"/>
<path d="M8.47916 28.375C7.27104 28.375 6.29166 29.5503 6.29166 31C6.29166 32.4497 7.27104 33.625 8.47916 33.625C9.68728 33.625 10.6667 32.4497 10.6667 31C10.6667 29.5503 9.68728 28.375 8.47916 28.375Z" fill="black"/>
<path d="M22.3333 31C22.3333 29.5503 23.3127 28.375 24.5208 28.375C25.7289 28.375 26.7083 29.5503 26.7083 31C26.7083 32.4497 25.7289 33.625 24.5208 33.625C23.3127 33.625 22.3333 32.4497 22.3333 31Z" fill="black"/>
</svg>
