<svg width="27" height="28" viewBox="0 0 27 28" fill="none" xmlns="http://www.w3.org/2000/svg">
<path fill-rule="evenodd" clip-rule="evenodd" d="M0.0104065 9.38796C0.0104065 4.43705 3.66283 0.625 7.94999 0.625C10.1599 0.625 12.1045 1.85725 13.5 3.45169C14.8954 1.85725 16.8401 0.625 19.05 0.625C23.3371 0.625 26.9896 4.43705 26.9896 9.38796C26.9896 12.7794 25.7734 15.7618 24.0884 18.2828C22.4064 20.7995 20.2062 22.9354 18.0995 24.6709C17.2949 25.3339 16.4808 25.9454 15.7358 26.3966C15.0363 26.8202 14.2319 27.2083 13.5 27.2083C12.7681 27.2083 11.9637 26.8202 11.2642 26.3966C10.5191 25.9454 9.70512 25.3339 8.90048 24.671C6.79382 22.9354 4.59359 20.7995 2.91155 18.2828C1.2266 15.7618 0.0104065 12.7794 0.0104065 9.38796ZM7.94999 3.375C4.74448 3.375 2.32291 6.17835 2.32291 9.38796C2.32291 11.961 3.24141 14.3567 4.72188 16.5717C6.20526 18.7912 8.20116 20.7494 10.2174 22.4104C10.9803 23.039 11.6989 23.5738 12.3136 23.946C12.9737 24.3458 13.3561 24.4583 13.5 24.4583C13.6439 24.4583 14.0262 24.3458 14.6864 23.946C15.3011 23.5738 16.0197 23.039 16.7826 22.4104C18.7988 20.7494 20.7947 18.7912 22.2781 16.5717C23.7586 14.3567 24.6771 11.961 24.6771 9.38796C24.6771 6.17835 22.2555 3.375 19.05 3.375C17.209 3.375 15.49 4.68294 14.4166 6.34302C14.1977 6.68153 13.8591 6.8799 13.5 6.8799C13.1409 6.8799 12.8022 6.68153 12.5834 6.34302C11.51 4.68294 9.79097 3.375 7.94999 3.375Z" fill="black"/>
</svg>
