<svg width="30" height="33" viewBox="0 0 30 33" fill="none" xmlns="http://www.w3.org/2000/svg">
<path fill-rule="evenodd" clip-rule="evenodd" d="M6.85415 8.37501C6.85415 3.87619 10.5012 0.229172 15 0.229172C19.4988 0.229172 23.1458 3.87619 23.1458 8.37501C23.1458 12.8738 19.4988 16.5208 15 16.5208C10.5012 16.5208 6.85415 12.8738 6.85415 8.37501ZM15 3.10417C12.089 3.10417 9.72915 5.464 9.72915 8.37501C9.72915 11.286 12.089 13.6458 15 13.6458C17.911 13.6458 20.2708 11.286 20.2708 8.37501C20.2708 5.464 17.911 3.10417 15 3.10417Z" fill="black"/>
<path fill-rule="evenodd" clip-rule="evenodd" d="M7.33331 22.2708C4.95159 22.2708 3.02081 24.2016 3.02081 26.5833V28.8609C3.02081 28.8956 3.04595 28.9251 3.08017 28.9307C10.9745 30.2196 19.0255 30.2196 26.9198 28.9307C26.954 28.9251 26.9791 28.8956 26.9791 28.8609V26.5833C26.9791 24.2016 25.0484 22.2708 22.6666 22.2708H22.0133C21.9628 22.2708 21.9126 22.2788 21.8646 22.2945L20.2057 22.8362C16.8231 23.9407 13.1769 23.9407 9.79428 22.8362L8.13538 22.2945C8.08736 22.2788 8.03716 22.2708 7.98664 22.2708H7.33331ZM0.145813 26.5833C0.145813 22.6138 3.36377 19.3958 7.33331 19.3958H7.98664C8.34025 19.3958 8.69164 19.4518 9.02778 19.5615L10.6867 20.1032C13.4894 21.0184 16.5106 21.0184 19.3133 20.1032L20.9722 19.5615C21.3083 19.4518 21.6597 19.3958 22.0133 19.3958H22.6666C26.6362 19.3958 29.8541 22.6138 29.8541 26.5833V28.8609C29.8541 30.3046 28.8079 31.5355 27.383 31.7682C19.182 33.1071 10.818 33.1071 2.61692 31.7682C1.19209 31.5355 0.145813 30.3046 0.145813 28.8609V26.5833Z" fill="black"/>
</svg>
